HIERARCHY
ROOT hip
{
	OFFSET 0.000000 0.000000 0.000000 
	CHANNELS 6 Xposition Yposition Zposition Xrotation Zrotation Yrotation
	JOINT abdomen
	{
		OFFSET 0.000000 3.402643 0.000000 
		CHANNELS 3 Xrotation Zrotation Yrotation
		JOINT chest
		{
			OFFSET 0.000000 8.438565 -0.680529 
			CHANNELS 3 Xrotation Zrotation Yrotation
			JOINT neck
			{
				OFFSET 0.000000 10.207942 -0.272212 
				CHANNELS 3 Xrotation Zrotation Yrotation
				JOINT head
				{
					OFFSET 0.000000 3.130431 0.000000 
					CHANNELS 3 Xrotation Zrotation Yrotation
					End Site
					{
						OFFSET 0.000000 3.130435 0.000000 
					}
				}
			}
			JOINT lCollar
			{
				OFFSET 3.470700 6.669187 -0.816635 
				CHANNELS 3 Yrotation Zrotation Xrotation
				JOINT lShldr
				{
					OFFSET 3.198488 0.000000 0.000000 
					CHANNELS 3 Zrotation Yrotation Xrotation
					JOINT lForeArm
					{
						OFFSET 10.139888 0.000000 0.000000 
						CHANNELS 3 Yrotation Zrotation Xrotation
						JOINT lHand
						{
							OFFSET 8.370511 0.000000 0.000000 
							CHANNELS 3 Zrotation Yrotation Xrotation
							End Site
							{
								OFFSET 4.083176 0.000000 0.000000 
							}
						}
					}
				}
			}
			JOINT rCollar
			{
				OFFSET -3.470700 6.669187 -0.816635 
				CHANNELS 3 Yrotation Zrotation Xrotation
				JOINT rShldr
				{
					OFFSET -3.198488 0.000000 0.000000 
					CHANNELS 3 Zrotation Yrotation Xrotation
					JOINT rForeArm
					{
						OFFSET -10.139888 0.000000 0.000000 
						CHANNELS 3 Yrotation Zrotation Xrotation
						JOINT rHand
						{
							OFFSET -8.370511 0.000000 0.000000 
							CHANNELS 3 Zrotation Yrotation Xrotation
							End Site
							{
								OFFSET -4.083176 0.000000 0.000000 
							}
						}
					}
				}
			}
		}
	}
	JOINT lThigh
	{
		OFFSET 5.308129 -1.633274 1.361059 
		CHANNELS 3 Xrotation Zrotation Yrotation
		JOINT lShin
		{
			OFFSET -2.041588 -20.007561 0.000000 
			CHANNELS 3 Xrotation Zrotation Yrotation
			JOINT lFoot
			{
				OFFSET 0.000000 -19.190928 -1.224953 
				CHANNELS 3 Xrotation Yrotation Zrotation
				End Site
				{
					OFFSET 0.000000 -2.449906 4.627600 
				}
			}
		}
	}
	JOINT rThigh
	{
		OFFSET -5.308129 -1.633274 1.361059 
		CHANNELS 3 Xrotation Zrotation Yrotation
		JOINT rShin
		{
			OFFSET 2.041588 -20.007561 0.000000 
			CHANNELS 3 Xrotation Zrotation Yrotation
			JOINT rFoot
			{
				OFFSET 0.000000 -19.190928 -1.224953 
				CHANNELS 3 Xrotation Yrotation Zrotation
				End Site
				{
					OFFSET 0.000000 -2.449906 4.627600 
				}
			}
		}
	}
}
MOTION
Frames: 10
Frame Time: 0.016667
-1.186438 48.916977 1.319348 6.154700 1.582630 -0.668999 -21.101101 -0.339481 -1.962500 15.200700 2.304360 -1.094710 35.753502 1.332800 -3.764560 22.091801 3.408030 -0.863537 2.000000 -2.000000 0.000000 -87.959503 0.088576 -158.770004 51.494598 -0.299968 0.107043 -179.912003 -179.889999 -0.173640 -2.000000 2.000000 0.000000 -97.938904 174.781006 -1.578470 -45.273899 0.311059 0.097138 -0.081919 0.073356 -164.128998 -5.537812 -3.333166 -1.270528 36.647846 2.865369 2.558093 -38.985916 12.307521 7.093263 -21.786804 3.759259 -2.488045 35.764889 -2.078053 -2.837869 -27.955133 3.954508 1.013739 
-2.079223 48.874565 2.460420 5.821800 1.292130 -1.459870 -21.258600 -0.225912 -1.882030 15.171400 2.304250 -1.037290 35.868198 0.986366 -3.606900 22.100000 3.333550 -0.769983 2.000000 -2.000000 0.000000 -87.559700 1.288220 -159.455994 51.660599 -0.299657 0.107289 -179.912003 -179.880005 -0.163856 -2.000000 2.000000 0.000000 -97.401802 174.832001 -0.768053 -45.498501 0.310677 0.097514 -0.081633 0.072796 -163.904007 -4.946499 -2.891563 -0.922207 36.740364 2.922559 2.535974 -39.233589 12.291169 7.156748 -21.316679 4.365582 -2.474141 35.863167 -2.075466 -2.844564 -27.758574 4.285551 1.291753 
-2.915110 48.823513 3.678188 5.450780 1.370730 -2.007690 -21.658800 -0.744780 -1.847510 14.763900 1.408790 -1.051070 36.152100 0.796724 -3.326400 22.147900 3.286110 -0.587566 2.000000 -2.000000 0.000000 -86.564598 3.190320 -160.436996 52.324699 -0.298409 0.108264 -179.912003 -179.891006 0.129113 -2.000000 2.000000 0.000000 -96.259300 175.440002 0.363212 -45.664501 0.310395 0.097792 -0.081459 0.072455 -163.766998 -4.091950 -2.922956 -0.634675 36.564148 3.012584 2.478930 -39.448185 12.207083 7.084955 -20.715509 4.328756 -2.771133 36.098007 -2.078672 -2.849936 -27.550335 5.051206 1.729095 
-3.780283 48.758808 4.840889 5.050380 1.420250 -2.706330 -21.726101 -0.692747 -1.931230 14.861100 1.583940 -1.095390 36.183899 0.285433 -3.053290 22.127001 3.221550 -0.443882 2.000000 -2.000000 0.000000 -86.467903 4.506260 -161.514008 52.715302 -0.297669 0.108831 -179.912003 -179.889999 -0.036922 -2.000000 2.000000 0.000000 -95.976196 175.432999 1.525340 -45.547298 0.310594 0.097596 -0.081348 0.072235 -163.679993 -3.281426 -2.886741 -0.223730 36.442329 3.061646 2.476180 -39.567436 12.080480 6.995853 -20.143940 4.497285 -2.717082 36.341766 -2.091264 -2.848466 -27.447271 5.651094 2.123994 
-4.634659 48.731346 5.971045 4.874780 1.527660 -3.336310 -21.901199 -0.661184 -1.986100 14.860700 1.719990 -1.128480 36.245701 -0.201447 -2.863650 22.144800 3.137620 -0.313838 2.000000 -2.000000 0.000000 -86.400597 5.802860 -162.492996 53.076698 -0.296981 0.109351 -179.912003 -179.889999 -0.251765 -2.000000 2.000000 0.000000 -95.732101 175.494003 2.570110 -45.293400 0.311026 0.097171 -0.081152 0.071844 -163.522995 -2.842726 -2.875966 0.086092 36.449242 3.090806 2.465858 -39.431919 12.047197 6.956275 -19.868645 4.588263 -2.628805 36.507900 -2.092119 -2.844997 -27.100803 6.108594 2.403190 
-5.486902 48.723225 7.097764 4.748030 1.635000 -3.848370 -22.027800 -0.640945 -2.015530 14.919100 1.797910 -1.134390 36.261799 -0.577905 -2.757080 22.152800 3.044620 -0.246003 2.000000 -2.000000 0.000000 -86.303802 6.943570 -163.315994 53.340302 -0.296478 0.109728 -179.910995 -179.889999 -0.447077 -2.000000 2.000000 0.000000 -95.410004 175.514999 3.214590 -44.873501 0.311735 0.096463 -0.080726 0.070987 -163.181000 -2.710838 -2.921347 0.022459 36.850838 3.102546 2.483820 -38.908470 12.334855 7.079109 -19.547226 4.641487 -2.588668 36.498825 -2.093822 -2.865064 -26.767073 6.559045 2.650349 
-6.315800 48.760479 8.208755 4.640820 1.742320 -4.262650 -22.134501 -0.600452 -2.074370 14.948200 1.875750 -1.160630 36.239498 -0.888991 -2.596580 22.152399 3.026060 -0.164184 2.000000 -2.000000 0.000000 -86.265503 8.006450 -164.001999 53.594200 -0.295991 0.110089 -179.910995 -179.889008 -0.574029 -2.000000 2.000000 0.000000 -95.302597 175.623993 3.858850 -44.424301 0.312489 0.095701 -0.080485 0.070496 -162.985992 -2.765670 -2.910308 -0.000937 37.610397 3.065584 2.530634 -38.277161 11.930141 6.643284 -19.111994 4.610848 -2.740166 36.320961 -2.117008 -2.856822 -26.432636 7.126394 2.962631 
-7.123490 48.758808 9.273161 4.709340 1.790810 -4.578830 -22.271200 -0.539526 -2.078650 14.948200 1.846590 -1.148000 36.171700 -1.086590 -2.560400 22.141899 2.989130 -0.147539 2.000000 -2.000000 0.000000 -86.187897 8.776950 -164.432999 53.672401 -0.295841 0.110199 -179.910995 -179.889008 -0.583795 -2.000000 2.000000 0.000000 -95.302696 175.830002 4.218940 -43.994598 0.313204 0.094966 -0.080389 0.070300 -162.908005 -3.236680 -2.927677 -0.591318 38.785351 2.990612 2.606806 -37.771389 11.320549 6.016893 -18.910797 4.623136 -2.863707 36.024956 -2.132699 -2.819421 -25.927641 7.709598 3.230812 
-7.941178 48.797997 10.334599 4.650890 1.859100 -4.838780 -22.320999 -0.433059 -2.017040 14.987200 1.895310 -1.102650 36.022999 -1.195620 -2.585090 22.063499 2.981350 -0.164402 2.000000 -2.000000 0.000000 -86.012398 9.274680 -164.570999 53.701698 -0.295784 0.110241 -179.910995 -179.880005 -0.437293 -2.000000 2.000000 0.000000 -95.273499 176.026001 4.208710 -43.428200 0.314138 0.093989 -0.080341 0.070202 -162.869003 -3.978016 -2.915405 -1.202677 40.540482 2.889023 2.712222 -36.479515 10.705460 5.345700 -18.543419 4.644737 -2.843685 35.611752 -2.145453 -2.783740 -25.489923 8.176428 3.445829 
-8.764078 48.871983 11.381153 4.582300 1.781400 -5.159750 -22.342300 -0.235923 -1.908210 14.977300 1.934160 -1.018880 35.826698 -1.250210 -2.600360 21.975700 2.992310 -0.195263 2.000000 -2.000000 0.000000 -85.788002 9.714160 -164.561996 53.896999 -0.295408 0.110516 -179.912003 -179.889999 -0.056453 -2.000000 2.000000 0.000000 -95.380898 176.171997 4.061880 -42.773899 0.315204 0.092849 -0.080472 0.070472 -162.975998 -4.775992 -2.682199 -1.862362 42.481625 2.773693 2.825094 -34.773983 10.158020 4.675888 -17.975119 4.888462 -2.521921 34.768242 -2.159186 -2.757440 -25.100584 8.354848 3.526424 
